<svg width="112" height="67" viewBox="0 0 112 67" fill="none" xmlns="http://www.w3.org/2000/svg">
<path fill-rule="evenodd" clip-rule="evenodd" d="M16.7815 4.0111C17.0371 3.97979 17.2801 4.01471 17.5104 4.11582C18.3203 4.95358 19.1304 5.79133 19.9403 6.62908C21.6947 7.52919 23.5575 8.22733 25.5291 8.72347C27.8241 9.65447 29.5656 11.0856 30.7534 13.017C31.2753 15.141 31.1538 17.2354 30.3889 19.3001C29.9029 19.9284 29.4169 20.1379 29.1739 19.3001C29.05 18.4498 29 18 28.5 17C27.5 15 25.9006 13.9307 24.1926 12.8075C23.9497 12.7028 23.7067 12.7028 23.8282 13.017C24.3435 14.0852 24.6269 15.2022 24.6786 16.368C24.8001 17.9023 25.1646 20.452 24.8001 20.9756C23.5473 20.9767 22.5347 20.5578 21.7628 19.719C17.4089 15.1093 15.7483 9.87337 16.7815 4.0111Z" fill="#285A48"/>
<path fill-rule="evenodd" clip-rule="evenodd" d="M17.7535 6.52435C19.1876 7.8768 20.9694 8.74947 23.0992 9.14233C25.7058 9.92966 27.7712 11.291 29.2955 13.2264C29.6267 14.1188 29.7076 15.0264 29.5385 15.9491C28.0108 13.9336 26.0263 12.3628 23.5852 11.2367C22.9102 11.0434 22.4242 11.218 22.1273 11.7603C23.1758 14.2639 23.6212 16.8469 23.4637 19.5095C19.4933 15.8862 17.5899 11.5579 17.7535 6.52435Z" fill="#23845B"/>
<path fill-rule="evenodd" clip-rule="evenodd" d="M105.873 28.3653C108.372 28.5156 109.988 29.8244 110.757 32.3318C110.982 33.3507 110.418 33.5147 109.969 33.2494C107.21 30.847 104.051 30.9057 100.701 33.4127C100.503 33.5658 99.9042 33.8976 99.9609 33.491C100.256 31.3742 101.176 30.1098 102.847 29.1804C103.871 28.7786 104.879 28.5068 105.873 28.3653Z" fill="#285A48"/>
<path fill-rule="evenodd" clip-rule="evenodd" d="M107.567 29.6386C108.031 29.709 109.385 30.9468 109.805 31.7735C105.152 29.9493 103.662 31.0491 101.097 32.129C101.974 30.438 102.942 29.8173 103.32 29.6872C105.007 29.0082 106.296 29.0287 107.567 29.6386Z" fill="#23845B"/>
<path fill-rule="evenodd" clip-rule="evenodd" d="M64.286 28.6201C64.691 28.6201 64.7314 28.7248 65.1364 28.7248C65.1364 29.004 65.1364 29.2834 65.1364 29.5626C64.7719 29.6673 64.5289 29.6673 64.1645 29.772C63.9215 29.772 63.6785 29.772 63.4355 29.772C63.3546 29.4928 63.2734 29.2134 63.1925 28.9343C63.557 28.7248 64.1645 28.6201 64.286 28.6201Z" fill="#285A48"/>
<path fill-rule="evenodd" clip-rule="evenodd" d="M57.1178 42.9667C57.1178 42.6875 57.1178 42.4081 57.1178 42.1289C56.7292 42.0728 56.4053 42.1427 56.1458 42.3383C53.8612 43.3246 51.5122 43.4293 49.0991 42.6525C47.8693 41.8401 46.9783 40.8279 46.4262 39.6156C46.4262 39.4062 46.4262 39.1968 46.4262 38.9873C46.0377 38.9312 45.7138 39.0011 45.4543 39.1968C43.0237 41.3609 40.1078 42.7572 36.7067 43.3855C34.1873 43.1367 32.3649 42.0196 31.2394 40.0345C29.8721 37.1256 30.1151 34.3332 31.9684 31.657C34.0505 29.497 36.521 29.0432 39.3795 30.2956C40.3998 31.4017 40.3189 32.4489 39.1365 33.4372C37.5037 34.3018 35.7218 34.7906 33.7908 34.9033C32.0881 37.4819 32.8171 39.3668 35.9777 40.5581C37.1887 40.9604 38.4037 40.9604 39.6225 40.5581C41.2352 39.9786 42.7743 39.2805 44.2393 38.4637C46.0618 36.3693 46.5477 35.3221 47.5197 33.5419C49.8852 30.6498 52.8414 30.0564 56.3888 31.7617C57.0101 32.3674 57.5367 33.0307 57.9682 33.7514C58.0492 34.5194 58.1303 35.2872 58.2112 36.0552C58.6666 36.5319 59.0717 36.4621 59.4262 35.8457C59.7574 34.271 60.2433 32.7352 60.8841 31.2381C61.6505 30.6073 62.501 30.1186 63.4355 29.772C63.6785 29.772 63.9215 29.772 64.1645 29.772C62.7043 32.7469 61.53 35.8885 60.6411 39.1968C60.0825 41.7391 60.204 44.2524 61.0056 46.7365C61.617 46.6831 62.1841 46.5085 62.7065 46.2129C65.0856 44.6493 66.8271 42.6596 67.9308 40.244C69.354 37.0222 70.5689 33.7409 71.5756 30.4003C72.3428 26.3678 72.9908 22.3187 73.5196 18.2529C73.9132 16.6257 74.3992 15.02 74.9775 13.4358C76.0027 11.6567 77.0961 9.91141 78.2579 8.19986C78.8692 7.63788 79.5173 7.11428 80.2018 6.62907C82.194 5.81388 83.3684 6.33747 83.7251 8.19986C84.0937 10.6473 83.7696 13.0209 82.7532 15.3208C81.0629 18.8686 78.471 21.8008 74.9775 24.1172C74.768 24.4496 74.606 24.7987 74.4915 25.1644C74.2262 28.8813 74.3883 32.5812 74.9775 36.2646C75.5342 37.5411 76.4656 38.5536 77.7719 39.3015C81.3477 41.2884 84.7902 42.1612 88.8279 40.8723C91.5008 40.1392 90.7718 40.3487 92.2298 39.8251C93.0802 39.6156 93.5662 39.3015 93.5662 39.3015C91.4267 41.6602 92.3986 41.381 89.1924 42.6525C81.0522 44.8516 77.3056 42.5379 73.3981 37.7307C73.081 37.196 72.838 36.6374 72.6691 36.0552C72.3802 35.8606 72.0563 35.7909 71.6971 35.8457C69.9984 41.3284 66.6775 45.9011 61.7346 49.564C62.3506 52.9527 62.31 56.3385 61.6131 59.7217C61.1354 61.9778 59.8801 63.828 57.8467 65.2719C55.6834 66.2914 53.5777 66.2217 51.529 65.0624C46.0724 61.1283 45.465 56.6951 49.7066 51.7631C51.4809 50.1628 53.4654 48.8014 55.6598 47.679C56.3708 47.6334 57.0595 47.5286 57.7252 47.3649C57.5306 45.9067 57.3282 44.4407 57.1178 42.9667Z" fill="#23845B"/>
<path fill-rule="evenodd" clip-rule="evenodd" d="M63.1925 28.9343C63.2734 29.2135 63.3545 29.4929 63.4355 29.7721C62.5009 30.1187 61.6505 30.6073 60.8841 31.2381C60.2433 32.7352 59.7573 34.271 59.4261 35.8458C59.0716 36.4621 58.6665 36.5319 58.2112 36.0552C58.1303 35.2872 58.0491 34.5194 57.9682 33.7514C57.5366 33.0307 57.0101 32.3674 56.3888 31.7617C52.8414 30.0565 50.0066 30.6498 47.6411 33.5419C46.3047 35.9505 45.8 37.0662 44.2393 38.4638C42.7743 39.2806 41.2352 39.9786 39.6225 40.5581C38.4036 40.9605 37.1887 40.9605 35.9776 40.5581C32.8171 39.3669 32.0881 37.4819 33.7907 34.9033C35.7218 34.7906 37.5036 34.3018 39.1365 33.4372C40.3189 32.4489 40.3998 31.4017 39.3795 30.2956C36.521 29.0432 34.0505 29.4971 31.9683 31.657C30.115 34.3332 29.872 37.1256 31.2393 40.0345C32.3649 42.0196 34.1873 43.1367 36.7066 43.3856C40.1077 42.7572 43.0236 41.3609 45.4542 39.1968C45.4117 39.641 45.4929 40.0599 45.6972 40.4534C43.799 42.0537 41.6121 43.2754 39.1365 44.1186C34.1324 44.9455 30.9329 43.235 29.5384 38.9873C28.1723 34.5577 29.7518 31.1717 34.2767 28.8296C36.3518 28.2566 38.2958 28.466 40.1085 29.4579C41.8497 31.3121 41.6067 32.9876 39.3795 34.4844C37.6394 35.0587 35.8982 35.5823 34.1552 36.0552C33.6692 38.5008 34.8842 39.7575 37.8001 39.8251C40.9684 39.2651 43.358 37.764 45.2112 35.5316C45.7123 34.6545 46.4909 33.1231 46.6692 32.9136C48.3113 30.9849 50.3767 29.9377 53.1084 29.7721C55.798 29.8131 57.742 30.8603 58.9401 32.9136C59.4854 30.8735 60.903 29.5471 63.1925 28.9343Z" fill="#285A48"/>
<path fill-rule="evenodd" clip-rule="evenodd" d="M35.7858 30.7238C36.8281 30.6098 37.314 30.7238 37.9023 31.1799C38.1629 31.5443 38.2068 31.9245 38.0346 32.3201C37.8 33.2278 35.6683 34.0024 33.9338 33.5743C33.7957 33.4464 33.7076 33.2943 33.6692 33.1183C33.9745 32.0059 34.5197 31.1799 35.7858 30.7238Z" fill="#285A48"/>
<path fill-rule="evenodd" clip-rule="evenodd" d="M36.2386 31.4433C37.9288 31.3121 37.5274 33.1022 34.9161 32.9298C34.9006 32.2366 35.3923 31.5613 36.2386 31.4433Z" fill="white"/>
<path fill-rule="evenodd" clip-rule="evenodd" d="M104.599 43.8137C101.128 43.6757 98.2843 42.3381 96.0872 39.0865C94.9828 37.198 93.3516 35.6967 93.1005 35.5357C88.8323 32.7991 87.1964 33.9757 83.2058 37.5243C82.904 37.4149 82.6696 37.2101 82.5026 36.9099C81.5201 33.7248 82.3235 31.336 84.9127 29.7437C87.658 28.6728 90.6548 29.0772 93.5 30.5C94.5 31 95.6357 31.8181 96.5 32.5C98.4011 34 99.5 36.5 100.512 37.3877C101.753 38.4762 103.739 40.0303 107.15 38.8156C107.88 38.3811 109.218 37.7267 110.08 35.0509C110.106 34.8954 110.473 34.3004 110.57 34.1924C110.845 34.1213 111.051 34.9338 111.287 35.3579C111.77 37.0592 111.76 39.0859 111.267 39.5778C109.738 42.0881 107.515 43.5 104.599 43.8137Z" fill="#285A48"/>
<path fill-rule="evenodd" clip-rule="evenodd" d="M104.585 42.7632C103.013 42.603 101.493 42.1779 100.027 41.4873C98.8362 40.7072 98.4612 40.3106 97.6543 39.4581C96.3098 37.6727 95.8481 36.5837 94.2414 35.0194C93.0797 34.007 91.1926 33.3691 89.795 33.172C87.635 33.0693 85.9832 32.9681 83.2401 35.4147C83.1741 33.3159 83.9123 31.4448 85.7238 30.6374C88.2724 29.6743 91.0185 29.8849 93.5001 31.5C95.0905 32.5117 96.5701 33.7479 97.6543 35.312C99.1784 37.1511 99.5001 38.9957 102.88 40.2586C107.5 41 109.457 39.1184 110.688 35.4717C111.129 36.1969 111.042 37.712 111.04 38.0326C111.039 38.2463 111.041 38.589 110.915 38.9957C110.648 40.3031 107.357 42.5354 104.585 42.7632Z" fill="#23845B"/>
<path fill-rule="evenodd" clip-rule="evenodd" d="M25.5291 15.6349C26.2581 15.7397 26.3796 15.9491 26.8655 16.5774C29.3372 22.0157 29.4181 27.4611 27.1085 32.9136C25.289 36.5719 23.2639 40.1323 21.0338 43.595C20.7388 43.9194 20.3743 44.1636 19.9403 44.328C18.1609 44.6323 16.3791 44.6671 14.5946 44.4327C14.1343 42.8339 13.6888 41.2283 13.2581 39.6156C12.3303 36.9595 11.3584 34.3068 10.3422 31.657C9.25489 29.6765 7.83746 27.8963 6.08993 26.3163C4.24863 25.2833 2.2237 24.8994 0.0151919 25.1644C-0.0366864 24.8201 0.044302 24.5059 0.258181 24.2219C3.45646 22.5816 6.89882 21.5694 10.5852 21.1851C12.5665 21.2154 13.8624 22.0532 14.4731 23.6983C16.4972 28.3041 17.874 33.0514 18.6039 37.9401C23.9604 32.0428 26.3903 25.3407 25.8936 17.834C25.852 17.2057 25.8936 16.8916 25.6506 16.1585C25.5464 15.8444 25.4552 15.771 25.5291 15.6349Z" fill="#285A48"/>
<path fill-rule="evenodd" clip-rule="evenodd" d="M26.987 21.8134C27.7709 24.0322 27.8924 26.336 27.3515 28.7249C25.6385 34.0015 23.0871 38.9233 19.6974 43.4903C18.2465 43.7272 16.7885 43.7969 15.3235 43.6997C14.683 40.7588 13.8327 37.8614 12.7722 35.008C11.8475 31.7737 10.1871 28.8765 7.79087 26.3163C7.0619 25.8277 6.33294 25.3389 5.60397 24.8503C4.81741 24.5462 4.00745 24.3018 3.17407 24.1172C5.87935 22.7643 8.79522 22.1707 11.9217 22.337C12.2862 22.6512 12.6507 22.9653 13.0151 23.2795C15.3977 28.1137 16.9365 33.1403 17.632 38.3591C17.6606 38.7932 17.9036 39.0726 18.3609 39.1968C19.5154 38.3121 20.5682 37.3347 21.5198 36.2647C24.6752 31.8399 26.4977 27.0228 26.987 21.8134Z" fill="#23845B"/>
<path fill-rule="evenodd" clip-rule="evenodd" d="M51.6504 33.0183C54.7877 32.7555 56.3887 33.8561 56.3887 36.5788C56.5102 38.359 55.7813 39.7727 53.4729 40.7675C52.9869 40.977 51.7719 41.0817 50.8 40.7675C48.0056 39.092 47.9135 36.7097 49.7065 34.2749C50.1692 33.6466 50.9215 33.2278 51.6504 33.0183Z" fill="#285A48"/>
<path fill-rule="evenodd" clip-rule="evenodd" d="M52.2579 34.0655C53.4729 33.8561 55.0523 34.5891 55.1738 36.6835C54.9104 38.7119 53.2299 40.3487 51.286 39.7204C50.071 39.3015 49.4278 37.3939 50.1925 35.8458C50.4355 35.008 51.5289 34.0655 52.2579 34.0655Z" fill="white"/>
<path fill-rule="evenodd" clip-rule="evenodd" d="M46.4263 39.6157C46.2985 39.978 46.0555 40.2574 45.6973 40.4534C45.493 40.0599 45.4118 39.641 45.4543 39.1968C45.7138 39.0012 46.0377 38.9312 46.4263 38.9874C46.4263 39.1968 46.4263 39.4062 46.4263 39.6157Z" fill="#285A48"/>
<path fill-rule="evenodd" clip-rule="evenodd" d="M45.6971 40.4534C46.0553 40.2574 46.2983 39.978 46.4261 39.6157C46.9782 40.8279 47.8692 41.8401 49.099 42.6525C51.5121 43.4293 53.8611 43.3246 56.1457 42.3384C56.0558 43.1104 56.3797 43.3198 57.1177 42.9667C57.3281 44.4407 57.5305 45.9068 57.7251 47.3649C57.0593 47.5287 56.3707 47.6334 55.6597 47.6791C53.4653 48.8014 51.4808 50.1628 49.7065 51.7631C45.4648 56.6952 46.0723 61.1284 51.5289 65.0625C53.5775 66.2217 55.6833 66.2914 57.8466 65.2719C59.88 63.828 61.1352 61.9778 61.613 59.7218C62.3099 56.3385 62.3504 52.9527 61.7345 49.564C66.6773 45.9011 69.9983 41.3285 71.697 35.8458C72.0562 35.7909 72.3801 35.8607 72.669 36.0552C72.8379 36.6375 73.0809 37.196 73.398 37.7307C77.3055 42.538 81.9026 45.0611 89.1923 42.4431C92.1082 40.977 91.5007 41.0817 93.3231 39.511C91.8983 41.0817 94.2243 38.5174 93.3231 39.511C92.1082 39.9298 91.957 40.0999 89.1923 40.977C85.1545 42.2659 81.5906 41.6026 78.0148 39.6157C76.7084 38.8678 75.5341 37.5412 74.9774 36.2647C74.3881 32.5813 74.2261 28.8813 74.4914 25.1644C74.6059 24.7987 74.7679 24.4496 74.9774 24.1172C78.4708 21.8008 81.0628 18.8687 82.7531 15.3208C83.7695 13.0209 84.0936 10.6473 83.725 8.1999C83.3683 6.33751 82.1939 5.81391 80.2017 6.62911C79.5172 7.11431 78.8691 7.63791 78.2577 8.1999C77.096 9.91145 76.0026 11.6568 74.9774 13.4359C74.3991 15.0201 73.9131 16.6258 73.5194 18.2529C72.9907 22.3188 72.3427 26.3679 71.5755 30.4004C70.5688 33.7409 69.3539 37.0222 67.9307 40.244C66.827 42.6597 65.0855 44.6493 62.7064 46.213C62.184 46.5085 61.6168 46.6832 61.0055 46.7366C60.2039 44.2524 60.0824 41.7392 60.641 39.1968C61.5299 35.8885 62.7042 32.7469 64.1644 29.7721C64.4239 29.5764 64.7478 29.5065 65.1363 29.5626C65.1363 29.2834 65.1363 29.0041 65.1363 28.7249C64.7312 28.7249 64.3264 28.7249 63.9214 28.7249C64.5206 28.4874 65.1686 28.4524 65.8653 28.6202C66.0011 28.772 66.082 28.9465 66.1083 29.1437C63.3168 33.3606 61.6968 37.8985 61.2485 42.7573C61.2152 43.7332 61.4582 44.6409 61.9774 45.48C63.6643 44.3528 65.0413 42.9914 66.1083 41.3959C67.7613 37.924 69.1383 34.3986 70.2391 30.8193C70.3171 31.1435 70.5601 31.2832 70.9681 31.2381C71.0208 30.6234 71.1826 30.0299 71.454 29.4579C71.3731 29.2834 71.292 29.1088 71.211 28.9343C70.9637 29.0795 70.7207 29.2189 70.4821 29.3532C71.1041 25.8084 71.6307 22.248 72.0615 18.6718C72.7732 14.0608 74.8386 9.97677 78.2577 6.41967C78.9449 5.94883 79.6739 5.52995 80.4447 5.16304C83.1802 4.79489 84.7597 5.80717 85.1829 8.1999C85.6463 12.3269 84.5123 16.0968 81.7811 19.5096C79.9186 21.4636 77.9747 23.3486 75.9493 25.1644C75.7873 28.0966 75.7873 31.0287 75.9493 33.9608C75.893 35.6146 76.5816 36.9759 78.0148 38.0449C81.3816 40.178 82.0241 40.4534 85.9119 40.3487C89.4353 40.0345 90.7311 39.8251 91.8652 39.4062C92.2296 39.2716 92.7156 39.1968 93.4446 38.7779C94.1736 38.359 93.9019 38.2296 94.1736 38.4638C94.2951 38.5685 93.5471 41.2133 91.2577 42.4431C82.8745 46.946 76.3138 43.2808 73.2765 39.6157C73.014 39.0929 72.6899 38.6041 72.3045 38.1496C70.8655 40.4205 69.4885 42.7244 68.1737 45.0611C66.7252 46.7984 65.0243 48.3342 63.0709 49.6687C63.2199 52.5896 63.2199 55.5217 63.0709 58.4651C62.6391 61.6899 60.9785 64.3078 58.0896 66.3191C55.4294 67.4025 52.9183 67.1931 50.5569 65.6908C44.5903 61.059 44.1447 56.0675 49.2205 50.7159C51.2111 48.8201 53.6006 47.4935 56.3887 46.7366C56.2407 45.624 56.1192 44.5069 56.0242 43.3856C54.1039 43.9844 52.1196 44.159 50.071 43.9092C47.9501 43.3724 46.4922 42.2205 45.6971 40.4534Z" fill="#285A48"/>
<path fill-rule="evenodd" clip-rule="evenodd" d="M57.1177 42.9667C56.3798 43.3198 56.0558 43.1103 56.1458 42.3383C56.4053 42.1427 56.7292 42.0728 57.1177 42.1289C57.1177 42.4081 57.1177 42.6875 57.1177 42.9667Z" fill="#285A48"/>
<path fill-rule="evenodd" clip-rule="evenodd" d="M70.2391 30.8192C70.3589 30.3362 70.4398 29.8476 70.4821 29.3531C70.7207 29.2189 70.9637 29.0794 71.2111 28.9343C71.292 29.1087 71.3732 29.2834 71.4541 29.4579C71.1827 30.0298 71.0208 30.6234 70.9681 31.2381C70.5601 31.2831 70.3171 31.1434 70.2391 30.8192Z" fill="#285A48"/>
<path fill-rule="evenodd" clip-rule="evenodd" d="M79.9587 10.0849C80.9074 9.99302 81.5148 10.3421 81.7812 11.1321C81.8188 13.2327 81.0899 15.1177 79.5943 16.7869C78.5232 17.8659 77.5106 18.983 76.5569 20.1379C76.2597 20.3712 75.9358 20.4061 75.5849 20.2426C75.3198 19.8104 75.2793 19.3566 75.4634 18.8813C76.0571 16.0454 78.4123 10.8913 79 10.5C79.6347 10.0774 79.6638 10.1134 79.9587 10.0849Z" fill="#285A48"/>
<path fill-rule="evenodd" clip-rule="evenodd" d="M79.9587 11.5509C80.2226 11.5761 80.3846 11.7157 80.4447 11.9698C79.9378 14.1144 78.8443 15.9994 77.1643 17.6246C77.2501 16.7705 77.711 15.8668 78 15C78.5 13.5 79 12.5 79.9587 11.5509Z" fill="#F2F2F2"/>
<path fill-rule="evenodd" clip-rule="evenodd" d="M57.5946 49.9921C57.952 49.9556 58.2675 50.0271 58.5408 50.2067C59.3972 53.4989 59.3972 56.7886 58.5408 60.0759C57.5489 62.0961 55.7017 62.9899 52.9988 62.7578C50.8196 61.2563 50.0538 59.3612 50.7009 57.0722C51.8602 53.9761 54.158 51.616 57.5946 49.9921Z" fill="#285A48"/>
<path fill-rule="evenodd" clip-rule="evenodd" d="M57.2732 50.8206C57.6739 50.9838 57.89 51.2818 57.9216 51.7148C58.1449 54.3326 58.0583 56.9408 57.6623 59.5392C57.1274 60.8159 56.09 61.6355 54.5499 61.9983C53.4029 61.8201 52.7115 61.2241 52.4749 60.2099C52.1403 59.1793 52.0537 58.136 52.2156 57.0801C53.1519 54.5256 54.8378 52.4389 57.2732 50.8206Z" fill="#FDFDFD"/>
</svg>
